<svg viewBox="0 0 186 21" xmlns="http://www.w3.org/2000/svg"><path d="m31.67 9.932-1.011-1.751-3.432-5.942L26.49.962a.713.713 0 0 0-.62-.358H15.51a.713.713 0 0 0-.62.358l-.825 1.43-3.624 6.279a.326.326 0 0 1-.36.147.315.315 0 0 1-.234-.307V5.526A4.928 4.928 0 0 0 4.925.604H.715A.715.715 0 0 0 0 1.318v4.208a4.828 4.828 0 0 0 2.977 4.47.317.317 0 0 1 .196.292v.003a.32.32 0 0 1-.196.294A4.829 4.829 0 0 0 0 15.027v4.239c0 .395.32.715.715.715h4.207a4.928 4.928 0 0 0 4.923-4.923v-2.984a.318.318 0 0 1 .593-.158l3.86 6.682.59 1.024a.713.713 0 0 0 .62.359h10.36a.713.713 0 0 0 .619-.359l1.097-1.898 2.577-4.466.036-.065 1.184-2.05.284-.493a.713.713 0 0 0 .005-.718Zm-10.902 4.12c-2.02 0-3.666-1.687-3.666-3.761s1.643-3.761 3.666-3.761c2.02 0 3.665 1.687 3.665 3.761s-1.645 3.761-3.665 3.761ZM78.251.11c-6.083 0-10.324 4.438-10.324 10.1 0 5.666 4.241 10.1 10.324 10.1 6.084 0 10.325-4.436 10.325-10.1 0-5.662-4.241-10.1-10.325-10.1Zm.184 17.115c-2.482.065-3.963-2.272-4.082-6.865-.131-5.056 1.234-7.097 3.682-7.161 2.546-.067 3.986 1.932 4.117 6.958.121 4.623-1.205 7.004-3.717 7.068ZM45.82.446h-8.036c-.446 0-.725.279-.725.725v1.06c0 .475.168.643.586.81l.529.197c.585.222.781.529.781 1.143v11.663c0 .614-.196.92-.781 1.143l-.53.196c-.417.168-.585.335-.585.81v1.06c0 .447.279.725.725.725h8.036c.447 0 .725-.279.725-.725v-1.06c0-.475-.167-.643-.585-.81l-.53-.196c-.585-.222-.78-.53-.78-1.143V4.38c0-.614.195-.921.78-1.143l.53-.196c.418-.168.585-.336.585-.81v-1.06c0-.447-.278-.726-.725-.726ZM67.295 17.411l-.307-.167c-.754-.418-1.31-.725-2.038-1.87l-2.624-4.214c-.14-.224-.057-.39.196-.446 2.203-.585 3.46-1.87 3.46-4.159 0-4.32-3.37-6.111-10.57-6.111L49.017.5c-.447.056-.671.307-.671.725v1.06c0 .475.168.642.529.782l.642.25c.53.224.725.503.725 1.06v11.663c0 .614-.196.921-.781 1.143l-.53.196c-.417.168-.585.336-.585.81v1.06c0 .447.279.726.725.726h8.036c.475 0 .725-.279.725-.725v-1.06c0-.475-.168-.643-.586-.81l-.531-.197c-.586-.222-.782-.529-.782-1.143v-4.326c0-.25.083-.335.279-.335.224 0 .364.167.557.503l3.823 6.919c.475.864.836 1.171 1.814 1.171h4.884c.474 0 .67-.25.67-.614v-1.003c.006-.442-.134-.638-.665-.945ZM56.97 9.04h-.614a.38.38 0 0 1-.394-.395v-5.33a.38.38 0 0 1 .394-.395h.645c2.17 0 3.514.787 3.514 2.97 0 2.18-1.04 3.15-3.545 3.15ZM184.883 3.238l.529-.196c.418-.168.586-.336.586-.81v-1.06c0-.447-.251-.726-.725-.726h-8.036c-.447 0-.725.279-.725.725v1.06c0 .475.167.643.585.81l.529.197c.586.222.782.529.782 1.143v3.516c0 .196-.14.335-.336.335h-5.913a.322.322 0 0 1-.335-.335V4.38c0-.614.196-.921.782-1.143l.531-.196c.418-.168.586-.336.586-.81v-1.06c0-.447-.25-.726-.725-.726h-8.036c-.447 0-.725.279-.725.725v1.06c0 .475.168.643.585.81l.529.197c.586.222.782.529.782 1.143v11.663c0 .614-.196.92-.782 1.143l-.529.196c-.417.168-.585.335-.585.81v1.06c0 .447.278.725.725.725h8.036c.475 0 .725-.279.725-.725v-1.06c0-.475-.168-.643-.586-.81l-.531-.196c-.586-.222-.782-.53-.782-1.143V11.41c0-.197.139-.336.335-.336h5.916c.196 0 .335.14.335.336v4.633c0 .614-.196.92-.781 1.143l-.529.196c-.418.168-.586.335-.586.81v1.06c0 .447.279.725.725.725h8.036c.475 0 .725-.279.725-.725v-1.06c0-.475-.167-.643-.585-.81l-.529-.196c-.586-.222-.782-.53-.782-1.143V4.38c-.003-.614.194-.921.779-1.143ZM156.985 7.59l-3.405-1.004c-1.675-.503-2.567-1.088-2.567-2.064 0-.949.892-1.553 2.26-1.563 1.919-.015 3.629.864 6.083 3.516.335.364.696.503 1.199.225l.586-.336c.503-.278.578-.694.335-1.117l-2.438-4.212c-.281-.498-.474-.839-1.06-.839h-.268c-.671 0-.754.307-1.424.307-.864 0-1.793-.335-3.377-.335-4.381 0-7.226 2.12-7.226 5.859 0 3.124 2.26 4.883 5.051 5.804l3.627 1.2c1.785.585 2.735 1.256 2.735 2.484 0 1.31-1.004 1.896-2.65 1.896-2.51 0-4.687-1.424-6.976-4.437-.363-.475-.724-.557-1.199-.335l-.921.446c-.418.196-.537.616-.279 1.143l2.57 5.273c.232.475.557.67.949.67h.333c.614 0 1.032-.417 1.592-.417 1.032 0 2.064.503 4.38.503 4.631 0 7.925-2.15 7.925-6.277-.002-3.823-2.543-5.44-5.835-6.39ZM142.858.446h-8.036c-.447 0-.725.279-.725.725v1.06c0 .475.167.643.585.81l.529.197c.586.222.782.529.782 1.143v11.663c0 .614-.196.92-.782 1.143l-.529.196c-.418.168-.585.335-.585.81v1.06c0 .447.278.725.725.725h8.036c.446 0 .725-.279.725-.725v-1.06c0-.475-.168-.643-.586-.81l-.529-.196c-.585-.222-.781-.53-.781-1.143V4.38c0-.614.196-.921.781-1.143l.529-.196c.418-.168.586-.336.586-.81v-1.06c0-.447-.279-.726-.725-.726ZM130.737.531c-.185-.322-.363-.531-.781-.531h-.555c-.307 0-.477.072-.709.253-.253.193-.472.193-1.019.193h-10.392c-.446 0-.725.279-.725.725v1.06c0 .475.168.643.586.81l.529.197c.585.222.781.529.781 1.143v11.663c0 .614-.196.92-.781 1.143l-.529.196c-.418.168-.586.335-.586.81v1.06c0 .447.279.725.725.725h8.426c.474 0 .725-.279.725-.725v-1.06c0-.475-.14-.697-.586-.81l-.921-.25c-.614-.168-.782-.475-.782-1.09v-4.911c0-.196.14-.335.336-.335h.474c2.178 0 3.517 1.117 4.884 2.706.196.224.446.307.782.14l.696-.365c.307-.167.421-.436.279-.725l-2.162-4.437c-.124-.253-.279-.407-.598-.407h-.344c-.234 0-.384.064-.598.234-.194.15-.428.256-.728.256h-2.685a.323.323 0 0 1-.336-.336v-3.57c0-1.004.39-1.396 1.45-1.396 1.814 0 4.298 1.592 5.748 3.042.25.25.557.307.893.11l.753-.474c.25-.168.421-.43.25-.725l-2.5-4.319ZM108.93 17.636l-.642-.222c-.586-.196-.782-.532-.782-1.146V4.13c0-.614.196-.92.782-1.143l.531-.196c.418-.167.586-.335.586-.81v-.81c0-.446-.25-.725-.725-.725h-5.358c-.446 0-.725.279-.725.725v.81c0 .475.168.643.586.81l.528.196c.586.222.782.53.782 1.143v6.837a.208.208 0 0 1-.209.209.21.21 0 0 1-.16-.078l-7.123-9.981c-.178-.27-.358-.449-.544-.537-.186-.087-.441-.131-.766-.131h-5.315c-.446 0-.725.278-.725.725v1.06c0 .475.168.642.586.81l.529.196c.585.222.782.53.782 1.143v11.914c0 .614-.197.92-.782 1.145l-.529.196c-.418.168-.586.336-.586.81v.81c0 .447.279.725.725.725h5.359c.474 0 .725-.278.725-.725v-.81c0-.474-.168-.642-.586-.81l-.529-.196c-.586-.224-.782-.531-.782-1.145V8.604a.208.208 0 0 1 .37-.132l7.886 10.838c.175.27.358.449.544.537.186.087.441.131.766.131h4.662c.475 0 .725-.279.725-.725v-.81c0-.475-.168-.668-.586-.807Z"/></svg>